<?xml version="1.0" standalone="no"?>
<!DOCTYPE svg PUBLIC "-//W3C//DTD SVG 20010904//EN"
 "http://www.w3.org/TR/2001/REC-SVG-20010904/DTD/svg10.dtd">
<svg version="1.0" xmlns="http://www.w3.org/2000/svg"
 width="260.000000pt" height="260.000000pt" viewBox="0 0 260.000000 260.000000"
 preserveAspectRatio="xMidYMid meet">
<metadata>
Created by potrace 1.11, written by Peter Selinger 2001-2013
</metadata>
<g transform="translate(0.000000,260.000000) scale(0.100000,-0.100000)"
fill="#000000" stroke="none">
<path d="M0 1300 l0 -1300 1300 0 1300 0 0 1300 0 1300 -1300 0 -1300 0 0
-1300z m1550 -231 l0 -129 125 0 126 0 -3 -102 -3 -103 -122 -3 -123 -3 0
-190 c0 -188 0 -190 25 -214 20 -21 34 -25 80 -25 31 0 71 6 90 14 l33 14 12
-71 c6 -40 14 -79 16 -88 11 -40 -158 -85 -288 -76 -110 7 -180 43 -223 111
l-30 49 -3 238 -3 238 -72 3 -72 3 -3 103 -3 102 76 0 75 0 0 95 0 94 68 20
c149 43 207 58 215 54 4 -2 7 -62 7 -134z m-732 -134 c34 -8 81 -24 103 -35
47 -24 119 -87 119 -104 0 -6 -31 -43 -70 -81 l-70 -69 -37 36 c-51 48 -91 67
-160 74 -70 8 -139 -9 -154 -37 -24 -46 11 -68 161 -99 222 -47 308 -102 329
-213 35 -190 -126 -317 -401 -317 -160 0 -314 48 -380 117 l-28 29 74 79 74
80 21 -27 c53 -66 216 -107 306 -76 32 10 41 18 43 40 4 36 -25 50 -170 84
-227 53 -310 115 -325 243 -10 89 54 188 157 241 94 48 283 64 408 35z"/>
</g>
</svg>
